<svg width="359" height="58" viewBox="0 0 359 58" fill="none" xmlns="http://www.w3.org/2000/svg">
<path d="M32.0568 49.9322C32.0611 42.7959 31.9588 36.1466 32.0985 29.5023C32.2484 22.3738 34.6981 16.3432 41.7441 13.4703C48.5677 10.6881 55.3105 11.3149 60.783 16.4925C66.238 21.6534 67.2173 28.3125 65.0218 35.3399C61.8624 45.4526 51.6695 48.5716 40.864 42.5019C40.864 47.6219 40.864 52.5196 40.864 57.7049C37.8749 57.7049 35.2988 57.7049 32.0568 57.7049C32.0568 55.2797 32.0568 52.8506 32.0568 49.9322ZM41.128 31.8516C41.5453 32.7477 41.8333 33.7371 42.4019 34.5239C45.0987 38.2558 50.1742 39.0696 53.8221 36.429C57.4728 33.7864 58.3522 27.3224 55.5943 23.4028C53.1466 19.9241 48.1564 18.9691 44.5474 21.3772C41.0447 23.7144 40.591 27.2373 41.128 31.8516Z" fill="#2EB99E"/>
<path d="M347.655 12.9754C356.109 16.9942 359.228 22.5117 358.381 31.8188C350.509 31.8188 342.583 31.8188 334.554 31.8188C336.073 37.5987 340.704 39.539 346.149 37.4646C349.401 36.2256 352.905 35.6479 356.705 34.6674C355.604 42.569 347.419 47.2046 338.872 45.818C328.994 44.2153 323.021 35.1016 325.265 25.0563C327.475 15.1674 336.496 10.1773 347.655 12.9754ZM341.524 25.9754C343.953 25.9754 346.383 25.9754 349.222 25.9754C348.044 21.0422 345.042 19.6268 341.033 19.9759C337.672 20.2685 335.108 21.7035 334.917 25.9754C336.976 25.9754 338.786 25.9754 341.524 25.9754Z" fill="#2DB99D"/>
<path d="M149.229 39.62C144.662 31.8408 144.93 23.6962 149.707 17.9084C154.12 12.5613 161.717 10.6086 168.784 13.0045C176.109 15.4876 179.878 21.8397 179.574 31.8438C171.601 31.8438 163.579 31.8438 155.351 31.8438C157.503 37.7929 162.02 39.4565 167.377 37.3552C170.572 36.1017 174.085 35.659 178.524 34.5959C176.429 41.4441 172.515 44.1441 167.515 45.3698C160.506 47.0877 154.342 45.4844 149.229 39.62ZM160.912 20.0334C158.205 20.9902 155.79 22.1833 156.038 25.5936C160.841 25.5936 165.382 25.5936 170.263 25.5936C168.838 20.8763 165.783 19.6376 160.912 20.0334Z" fill="#2DB99D"/>
<path d="M226.599 24.1198C226.398 31.1034 226.398 37.7158 226.398 44.6664C222.961 44.6664 220.381 44.6664 217.436 44.6664C217.436 30.0578 217.436 15.3504 217.436 0.315002C220.016 0.315002 222.596 0.315002 225.632 0.315002C225.632 5.17822 225.632 10.0988 225.632 15.197C228.591 14.0295 231.028 12.4922 233.622 12.1544C240.987 11.1952 247.432 16.8069 247.966 24.838C248.395 31.2879 248.053 37.7891 248.053 44.6386C245.48 44.6386 242.939 44.6386 239.772 44.6386C239.772 38.9605 239.918 33.3494 239.717 27.7509C239.599 24.476 238.553 21.4442 234.834 20.442C231.343 19.5015 228.628 20.5815 226.599 24.1198Z" fill="#2EB99E"/>
<path d="M75.5963 42.4932C69.2567 35.5998 68.1268 26.2763 72.5431 19.3883C76.6078 13.0485 85.0525 10.3601 92.8457 12.9598C99.4144 15.1511 102.947 20.0157 103.516 26.6286C104.023 32.5264 103.622 38.5022 103.622 44.4002C96.6245 45.6699 96.5736 45.6518 95.2273 41.5468C88.1058 47.2542 83.7256 47.5227 75.5963 42.4932ZM94.1618 33.3129C94.4349 31.3756 95.0863 29.4019 94.9045 27.5082C94.4905 23.1951 91.9248 20.4918 87.5566 20.1372C83.2102 19.7844 80.0685 21.9151 79.1031 26.1794C78.1424 30.4227 78.5706 34.6628 83.0232 36.9346C87.3124 39.123 91.04 38.0168 94.1618 33.3129Z" fill="#2EB99E"/>
<path d="M255.047 22.4284C259.437 13.9999 266.59 10.4999 274.917 12.3745C282.845 14.1592 287.462 20.0098 287.798 29.0681C287.987 34.1777 287.832 39.3 287.832 44.8109C284.34 44.5171 280.327 47.2709 279.431 41.4331C272.55 46.8268 266.8 47.378 260.746 43.3327C254.663 39.269 252.504 31.632 255.047 22.4284ZM264.001 34.1324C267.702 38.1811 271.574 39.0592 275.294 36.6938C278.731 34.5089 280.107 29.3624 278.379 25.1537C276.768 21.2269 272.69 19.2152 268.658 20.3574C264.441 21.5523 262.357 25.1762 262.88 30.5607C262.974 31.5247 263.37 32.4591 264.001 34.1324Z" fill="#2EB99E"/>
<path d="M127.506 20.2767C122.536 19.8162 119.193 21.6585 118.118 26.1943C117.155 30.2533 117.543 34.3844 121.67 36.7227C125.878 39.1072 129.271 37.554 132.888 34.5194C134.903 32.8285 138.497 33.0203 141.628 32.3072C140.926 40.8393 134.318 46.122 125.597 45.9896C116.447 45.8508 109.593 39.5579 108.996 30.7486C108.33 20.9228 113.954 13.5129 123.106 12.1571C132.238 10.8044 139.774 15.7417 141.868 24.7463C138.023 25.0728 134.179 26.5369 131.317 22.2431C130.675 21.2808 129.055 20.971 127.506 20.2767Z" fill="#2EB99E"/>
<path d="M13.8383 19.5158C12.0905 20.4493 10.7895 21.4352 9.48847 22.4212C10.7506 23.3038 11.9014 24.5012 13.3006 24.9962C15.4762 25.7657 17.8836 25.8663 20.0814 26.5889C25.8432 28.4831 28.1888 33.8701 25.7962 39.3409C23.6579 44.2304 17.2501 46.9244 10.3229 45.8462C4.22344 44.8969 0.970124 41.7284 0.140137 34.5667C3.73002 35.7327 6.72332 36.8216 9.78641 37.6537C11.4804 38.1138 13.339 38.4805 15.0313 38.2405C16.0396 38.0975 16.8695 36.6967 17.7796 35.8613C16.9315 34.9651 16.2333 33.5926 15.2049 33.2688C12.8432 32.5252 10.2845 32.436 7.87048 31.8253C1.07345 30.1058 -1.64173 23.3538 1.9637 17.3605C4.40496 13.3024 10.307 11.1485 16.1477 12.1841C21.6581 13.1612 24.5063 15.9242 25.7542 21.7222C21.5573 22.8507 17.7476 22.2638 13.8383 19.5158Z" fill="#2FB99E"/>
<path d="M197.04 12.0053C205.481 12.7428 208.677 15.2888 209.828 23.0249C206.193 21.9699 203.107 20.9059 199.939 20.2231C198.266 19.8624 196.414 19.9738 194.719 20.2862C194.209 20.3802 193.461 22.4435 193.667 22.621C194.825 23.6164 196.156 24.5625 197.59 25.0493C199.774 25.7908 202.16 25.9409 204.336 26.6998C210.332 28.7913 212.44 34.9174 209.197 40.4126C206.7 44.6441 200.456 46.8895 194.143 45.826C188.392 44.8569 185.37 42.0161 184.047 36.0282C187.551 35.5937 190.857 34.28 193.995 37.629C194.916 38.6107 197.433 38.4804 199.117 38.2148C200.11 38.0581 200.903 36.6351 201.786 35.7815C200.914 34.9054 200.189 33.6566 199.135 33.2386C197.469 32.5778 195.581 32.484 193.79 32.1326C187.347 30.8686 184.475 28.0959 184.381 23.0613C184.283 17.8679 187.473 13.9966 193.178 12.4931C194.289 12.2003 195.468 12.1651 197.04 12.0053Z" fill="#2FB99E"/>
<path d="M294.051 37.9152C294.101 32.9292 293.801 28.3942 294.276 23.942C295.156 15.7068 301.031 11.384 309.764 12.0476C317.64 12.646 322.08 17.8391 321.794 26.4996C319.412 26.4996 317.003 26.4996 314.348 26.4996C314.322 26.4774 313.921 26.3105 313.852 26.0545C312.936 22.6376 311.681 19.4332 307.261 20.2297C302.9 21.0156 302.844 24.5383 302.869 28.0067C302.908 33.4724 302.879 38.9386 302.879 44.7048C299.882 44.7048 297.3 44.7048 294.051 44.7048C294.051 42.6079 294.051 40.5057 294.051 37.9152Z" fill="#30BA9F"/>
</svg>
